<?xml version="1.0" standalone="no"?><!DOCTYPE svg PUBLIC "-//W3C//DTD SVG 1.1//EN" "http://www.w3.org/Graphics/SVG/1.1/DTD/svg11.dtd"><svg t="1723532928359" class="icon" viewBox="0 0 1024 1024" version="1.1" xmlns="http://www.w3.org/2000/svg" p-id="3348" xmlns:xlink="http://www.w3.org/1999/xlink" width="200" height="200"><path d="M381.44 884.992c15.104-6.656 54.272-24.576 93.952-46.592C567.04 787.712 574.464 763.648 574.976 761.344c4.096-18.432 15.872-30.208 32.512-31.744 17.664-1.792 37.888 9.472 59.648 32.768 16.896 18.176 32.512 41.472 41.472 62.72 2.816 6.4 5.12 13.056 6.912 19.712 24.832-15.36 47.616-33.536 68.352-54.016C852.48 723.712 893.44 633.344 898.56 537.6c-22.016 13.312-46.336 26.624-72.704 39.68-85.76 42.24-183.808 76.288-275.968 95.744-132.096 27.904-276.736 45.312-380.16 46.848 49.152 78.08 124.16 136.448 211.712 165.12z m76.288 16.64c15.616 1.792 31.744 2.816 47.616 2.816 56.832 0 112.896-12.032 164.864-35.584l1.024-1.024c0.512-3.584-1.024-15.872-11.008-34.816-13.056-24.064-30.72-43.264-41.728-51.712-8.448 20.224-34.048 51.2-119.808 98.816-14.592 7.936-28.16 15.104-40.96 21.504zM715.264 185.6l-0.512 6.656c-11.52-1.024-53.248 18.432-80.128 47.872-12.8 14.08-14.848 22.528-14.336 24.32 5.376 29.44-10.24 71.168-46.08 123.648-25.856 37.888-60.16 76.544-81.408 92.672-4.864 3.328-14.336 10.496-25.6 10.496-14.336 0-26.112-11.776-26.112-26.112v-0.768c0-5.12 0.768-12.8 1.536-23.296 1.792-20.992 4.352-52.992 3.072-82.432-2.048-41.728-11.008-54.784-14.848-58.368-1.792-1.792-4.096-3.328-9.984-2.816-27.904 3.328-68.864-5.632-103.424-66.56-8.192-14.592-15.104-29.696-20.736-45.568-25.088 15.616-48.384 34.048-69.376 54.784-78.08 76.288-119.808 182.528-114.688 291.584 0.768 13.056-9.216 24.064-22.272 25.088-1.024 0.256-1.536 0.512-2.048 0.512-12.544 0-23.04-9.984-23.552-22.528-0.512-6.4-0.512-12.8-0.512-18.944-0.256-116.224 46.336-227.584 129.28-308.736 82.944-82.176 195.072-128 311.808-127.488 90.624-0.256 179.2 27.392 253.696 79.104 72.448 49.92 128 120.576 159.744 202.752 4.096 12.288-2.56 25.856-15.104 29.952-11.776 3.84-24.32-1.792-29.184-13.056-30.464-80.384-86.528-147.968-159.232-192.768z m-50.176-26.368c-50.432-22.016-104.704-33.28-159.488-33.28-57.6 0-114.688 12.288-166.912 36.352 3.584 10.752 9.984 28.416 19.968 45.568 17.408 30.208 36.608 44.544 56.832 42.496 18.688-2.048 35.328 3.328 48.128 15.872 30.208 29.184 31.744 89.6 28.16 149.504 11.264-12.544 24.32-28.672 37.632-46.848 35.84-50.688 46.08-83.2 43.776-95.744-3.584-19.968 4.864-41.984 26.112-64.768 16.896-18.432 41.472-36.864 65.792-49.152z m-550.4 559.616c-13.312-0.768-26.368-2.048-39.68-3.84-21.504-3.328-38.4-14.592-47.616-31.232-8.704-16.128-9.984-35.328-3.072-52.48 5.12-12.032 18.688-17.664 30.72-12.544 12.032 4.864 17.664 18.944 12.544 30.976-1.28 3.84-0.768 7.936 1.024 11.264 2.048 3.84 6.656 6.4 13.568 7.424 83.456 13.568 284.416-4.864 457.728-41.728 91.648-19.968 180.48-50.688 264.704-91.904 72.192-35.584 129.792-74.496 154.112-104.192 5.376-6.4-1.792-20.992-9.728-31.232-7.936-10.496-5.888-25.088 4.608-33.024 10.496-7.936 25.088-5.888 33.024 4.608 25.088 33.28 27.904 66.048 8.448 89.6-11.776 14.336-29.184 29.952-50.944 46.08 1.28 2.816 1.792 5.888 1.792 8.96 0.256 116.224-46.336 227.328-129.28 308.736-82.944 82.176-195.072 128-311.808 127.744-82.944 0-164.096-23.04-234.496-66.56-65.28-40.96-119.296-98.304-155.648-166.656z" p-id="3349" fill="#7dc5eb"></path></svg>